<svg xmlns="http://www.w3.org/2000/svg" width="1200" height="1200" viewBox="0 0 1200 1200"><defs><linearGradient id="chrome" x1="0" y1="0" x2=".8" y2="1" gradientUnits="objectBoundingBox"><stop stop-color="#101d29"/><stop offset=".19" stop-color="#f3faff"/><stop offset=".29" stop-color="#7b96b0"/><stop offset=".45" stop-color="#06101c"/><stop offset=".48" stop-color="#06101c"/><stop offset=".50" stop-color="#ffffff"/><stop offset=".59" stop-color="#c1d7e4"/><stop offset=".77" stop-color="#21354c"/><stop offset="1" stop-color="#e8f9ff"/></linearGradient><linearGradient id="spectrum" x2="1" y2=".7"><stop stop-color="#8fbefa"/><stop offset=".18" stop-color="#dac1ed"/><stop offset=".31" stop-color="#f3b69f"/><stop offset=".45" stop-color="#e3df9e"/><stop offset=".62" stop-color="#9cdae4"/><stop offset=".78" stop-color="#3a508a"/><stop offset="1" stop-color="#8e4070"/></linearGradient><linearGradient id="velvet"><stop stop-color="#170b20"/><stop offset=".48" stop-color="#2d1239"/><stop offset=".58" stop-color="#724268"/><stop offset=".72" stop-color="#4a234d"/><stop offset="1" stop-color="#170b20"/></linearGradient><filter id="grain"><feTurbulence baseFrequency=".7" numOctaves="3" seed="16" stitchTiles="stitch"/><feColorMatrix type="saturate" values="0"/></filter></defs><rect width="1200" height="1200" fill="#062042"/><path d="M-50 -30 Q1120 540 -240 1240M-30 0Q600 300 1240 0" fill="none" stroke="#ff5b2c" stroke-opacity="0.8" stroke-width="2"/><path d="M0 -30 Q1085 540 -170 1240M-30 50Q600 320 1240 55" fill="none" stroke="#b7dff5" stroke-opacity="0.34" stroke-width="2"/><path d="M50 -30 Q1050 540 -100 1240M-30 100Q600 340 1240 110" fill="none" stroke="#b7dff5" stroke-opacity="0.34" stroke-width="2"/><path d="M100 -30 Q1015 540 -30 1240M-30 150Q600 360 1240 165" fill="none" stroke="#b7dff5" stroke-opacity="0.34" stroke-width="2"/><path d="M150 -30 Q980 540 40 1240M-30 200Q600 380 1240 220" fill="none" stroke="#b7dff5" stroke-opacity="0.34" stroke-width="2"/><path d="M200 -30 Q945 540 110 1240M-30 250Q600 400 1240 275" fill="none" stroke="#ff5b2c" stroke-opacity="0.8" stroke-width="2"/><path d="M250 -30 Q910 540 180 1240M-30 300Q600 420 1240 330" fill="none" stroke="#b7dff5" stroke-opacity="0.34" stroke-width="2"/><path d="M300 -30 Q875 540 250 1240M-30 350Q600 440 1240 385" fill="none" stroke="#b7dff5" stroke-opacity="0.34" stroke-width="2"/><path d="M350 -30 Q840 540 320 1240M-30 400Q600 460 1240 440" fill="none" stroke="#b7dff5" stroke-opacity="0.34" stroke-width="2"/><path d="M400 -30 Q805 540 390 1240M-30 450Q600 480 1240 495" fill="none" stroke="#b7dff5" stroke-opacity="0.34" stroke-width="2"/><path d="M450 -30 Q770 540 460 1240M-30 500Q600 500 1240 550" fill="none" stroke="#ff5b2c" stroke-opacity="0.8" stroke-width="2"/><path d="M500 -30 Q735 540 530 1240M-30 550Q600 520 1240 605" fill="none" stroke="#b7dff5" stroke-opacity="0.34" stroke-width="2"/><path d="M550 -30 Q700 540 600 1240M-30 600Q600 540 1240 660" fill="none" stroke="#b7dff5" stroke-opacity="0.34" stroke-width="2"/><path d="M600 -30 Q665 540 670 1240M-30 650Q600 560 1240 715" fill="none" stroke="#b7dff5" stroke-opacity="0.34" stroke-width="2"/><path d="M650 -30 Q630 540 740 1240M-30 700Q600 580 1240 770" fill="none" stroke="#b7dff5" stroke-opacity="0.34" stroke-width="2"/><path d="M700 -30 Q595 540 810 1240M-30 750Q600 600 1240 825" fill="none" stroke="#ff5b2c" stroke-opacity="0.8" stroke-width="2"/><path d="M750 -30 Q560 540 880 1240M-30 800Q600 620 1240 880" fill="none" stroke="#b7dff5" stroke-opacity="0.34" stroke-width="2"/><path d="M800 -30 Q525 540 950 1240M-30 850Q600 640 1240 935" fill="none" stroke="#b7dff5" stroke-opacity="0.34" stroke-width="2"/><path d="M850 -30 Q490 540 1020 1240M-30 900Q600 660 1240 990" fill="none" stroke="#b7dff5" stroke-opacity="0.34" stroke-width="2"/><path d="M900 -30 Q455 540 1090 1240M-30 950Q600 680 1240 1045" fill="none" stroke="#b7dff5" stroke-opacity="0.34" stroke-width="2"/><path d="M950 -30 Q420 540 1160 1240M-30 1000Q600 700 1240 1100" fill="none" stroke="#ff5b2c" stroke-opacity="0.8" stroke-width="2"/><path d="M1000 -30 Q385 540 1230 1240M-30 1050Q600 720 1240 1155" fill="none" stroke="#b7dff5" stroke-opacity="0.34" stroke-width="2"/><path d="M1050 -30 Q350 540 1300 1240M-30 1100Q600 740 1240 1210" fill="none" stroke="#b7dff5" stroke-opacity="0.34" stroke-width="2"/><path d="M1100 -30 Q315 540 1370 1240M-30 1150Q600 760 1240 1265" fill="none" stroke="#b7dff5" stroke-opacity="0.34" stroke-width="2"/><path d="M1150 -30 Q280 540 1440 1240M-30 1200Q600 780 1240 1320" fill="none" stroke="#b7dff5" stroke-opacity="0.34" stroke-width="2"/><rect width="1200" height="1200" filter="url(#grain)" opacity=".055"/></svg>